<svg width="267" height="344" viewBox="0 0 267 344" fill="none" xmlns="http://www.w3.org/2000/svg">
<path d="M0 133.016C0 49.881 67.6165 0 133.016 0C198.416 0 266.032 49.881 266.032 133.016C266.032 212.826 146.318 334.757 140.775 340.3C138.558 342.517 136.342 343.625 133.016 343.625C129.691 343.625 127.474 342.517 125.257 340.3C119.714 334.757 0 211.717 0 133.016Z" fill="#0B9072"/>
<mask id="mask0_391_304" style="mask-type:alpha" maskUnits="userSpaceOnUse" x="0" y="0" width="267" height="344">
<path d="M0 133.016C0 49.881 67.6165 0 133.016 0C198.416 0 266.032 49.881 266.032 133.016C266.032 212.826 146.318 334.757 140.775 340.3C138.558 342.517 136.342 343.625 133.016 343.625C129.691 343.625 127.474 342.517 125.257 340.3C119.714 334.757 0 211.717 0 133.016Z" fill="#0B9072"/>
</mask>
<g mask="url(#mask0_391_304)">
<rect x="132.177" y="171.819" width="131.567" height="133.678" transform="rotate(45 132.177 171.819)" fill="#0099AF"/>
<path d="M135.349 179.688L233.361 270.699C311.77 173.621 287.812 79.3429 266.031 44.3386L135.349 179.688Z" fill="#051173"/>
<rect x="36.499" y="247.691" width="291.246" height="38.318" transform="rotate(-45 36.499 247.691)" fill="#53C5D5"/>
<rect x="153.107" y="172.688" width="120.044" height="38.318" transform="rotate(45 153.107 172.688)" fill="#53C5D5"/>
</g>
<circle cx="130.682" cy="140.017" r="79.343" fill="#E4EBEC"/>
<g clip-path="url(#clip0_391_304)">
<path d="M157.071 143.33C163.32 142.104 168.053 138.264 169.374 130.106C171.194 118.963 162.428 112.714 150.408 108.383L154.439 93.3295L144.91 90.7764L140.98 105.432C138.474 104.761 135.905 104.123 133.348 103.491L137.299 88.739L127.779 86.1873L123.745 101.236C121.671 100.723 119.635 100.219 117.656 99.6888L117.668 99.6443L104.527 96.1176L101.907 105.902C101.907 105.902 108.978 107.66 108.829 107.753C112.686 108.789 113.368 111.282 113.232 113.239L108.64 130.387L102.186 154.475C101.703 155.596 100.489 157.27 97.7904 156.55C97.8853 156.687 90.8595 154.692 90.8595 154.692L86.0379 165.127L98.4354 168.449C100.745 169.07 103.005 169.713 105.228 170.327L101.157 185.552L110.674 188.104L114.707 173.04C117.312 173.793 119.833 174.493 122.303 175.151L118.283 190.143L127.811 192.696L131.888 177.5C148.141 180.907 160.394 180.031 165.664 165.938C169.909 154.592 165.602 147.866 157.071 143.33ZM130.69 114.322C136.064 115.762 153.405 118.645 150.515 129.443C147.739 139.793 131.167 134.057 125.788 132.616L130.69 114.322V114.322ZM117.905 162.02L123.314 141.851C129.771 143.579 150.5 147.22 147.323 159.088C144.276 170.47 124.367 163.746 117.905 162.02Z" fill="#0B9072"/>
</g>
<defs>
<clipPath id="clip0_391_304">
<rect width="83.9761" height="106.37" fill="white" transform="translate(105.504 78.4165) rotate(15)"/>
</clipPath>
</defs>
</svg>
