<svg width="1356" height="964" viewBox="0 0 1356 964" fill="none" xmlns="http://www.w3.org/2000/svg">
<rect width="1356" height="964" fill="white"/>
<path fill-rule="evenodd" clip-rule="evenodd" d="M743.118 387.643C739.101 454.095 707.932 513.221 660.559 554.072C613.186 513.221 582.016 454.095 578 387.643C603.731 378.171 631.541 373 660.559 373C689.577 373 717.387 378.171 743.118 387.643Z" fill="#B3E0E7"/>
<path d="M626 436.468C626 414.3 644.029 401 661.468 401C678.906 401 696.935 414.3 696.935 436.468C696.935 457.748 665.015 490.26 663.537 491.738C662.946 492.329 662.354 492.625 661.468 492.625C660.581 492.625 659.99 492.329 659.399 491.738C657.921 490.26 626 457.453 626 436.468Z" fill="#12B18E"/>
<mask id="mask0_692_4019" style="mask-type:alpha" maskUnits="userSpaceOnUse" x="626" y="401" width="71" height="92">
<path d="M626 436.468C626 414.3 644.029 401 661.468 401C678.906 401 696.935 414.3 696.935 436.468C696.935 457.748 665.015 490.26 663.537 491.738C662.946 492.329 662.354 492.625 661.468 492.625C660.581 492.625 659.99 492.329 659.399 491.738C657.921 490.26 626 457.453 626 436.468Z" fill="#17DEB1"/>
</mask>
<g mask="url(#mask0_692_4019)">
<rect x="661.243" y="446.814" width="35.0814" height="35.6443" transform="rotate(45 661.243 446.814)" fill="#00AEC8"/>
<path d="M662.09 448.913L688.224 473.18C709.132 447.295 702.743 422.156 696.936 412.823L662.09 448.913Z" fill="#1224B4"/>
<rect x="635.732" y="467.045" width="77.6585" height="10.2172" transform="rotate(-45 635.732 467.045)" fill="#62E6F9"/>
<rect x="666.825" y="447.046" width="32.0089" height="10.2172" transform="rotate(45 666.825 447.046)" fill="#62E6F9"/>
</g>
<circle cx="660.845" cy="438.334" r="21.1562" fill="white"/>
<g clip-path="url(#clip0_692_4019)">
<path d="M667.881 439.218C669.548 438.891 670.81 437.867 671.162 435.692C671.647 432.721 669.31 431.054 666.105 429.899L667.179 425.886L664.639 425.205L663.591 429.113C662.922 428.934 662.238 428.764 661.556 428.595L662.609 424.662L660.071 423.981L658.995 427.994C658.442 427.857 657.899 427.723 657.372 427.581L657.375 427.569L653.871 426.629L653.172 429.238C653.172 429.238 655.058 429.707 655.018 429.731C656.046 430.008 656.228 430.672 656.192 431.194L654.968 435.767L653.247 442.189C653.118 442.489 652.794 442.935 652.075 442.743C652.1 442.779 650.227 442.247 650.227 442.247L648.941 445.03L652.247 445.916C652.862 446.081 653.465 446.253 654.058 446.416L652.972 450.476L655.51 451.157L656.585 447.14C657.28 447.341 657.952 447.527 658.611 447.703L657.539 451.7L660.079 452.381L661.167 448.329C665.5 449.237 668.767 449.004 670.173 445.246C671.304 442.221 670.156 440.427 667.881 439.218ZM660.847 431.483C662.28 431.867 666.904 432.636 666.133 435.515C665.393 438.275 660.974 436.745 659.54 436.361L660.847 431.483ZM657.438 444.201L658.88 438.823C660.602 439.284 666.129 440.255 665.282 443.42C664.47 446.454 659.161 444.662 657.438 444.201Z" fill="#12B18E"/>
</g>
<circle cx="505" cy="373" r="237" stroke="#0099AF" stroke-width="4"/>
<circle cx="817" cy="373" r="237" stroke="#0099AF" stroke-width="4"/>
<circle cx="661" cy="612" r="237" stroke="#0099AF" stroke-width="4"/>
<path d="M438.024 325V307.72H440.292L446.556 320.716L452.784 307.72H455.076V324.988H452.7V313.168L447.12 325H445.98L440.388 313.168V325H438.024ZM462.098 325.36C461.138 325.36 460.334 325.184 459.686 324.832C459.038 324.472 458.546 324 458.21 323.416C457.882 322.824 457.718 322.176 457.718 321.472C457.718 320.816 457.834 320.24 458.066 319.744C458.298 319.248 458.642 318.828 459.098 318.484C459.554 318.132 460.114 317.848 460.778 317.632C461.354 317.464 462.006 317.316 462.734 317.188C463.462 317.06 464.226 316.94 465.026 316.828C465.834 316.716 466.634 316.604 467.426 316.492L466.514 316.996C466.53 315.98 466.314 315.228 465.866 314.74C465.426 314.244 464.666 313.996 463.586 313.996C462.906 313.996 462.282 314.156 461.714 314.476C461.146 314.788 460.75 315.308 460.526 316.036L458.186 315.316C458.506 314.204 459.114 313.32 460.01 312.664C460.914 312.008 462.114 311.68 463.61 311.68C464.77 311.68 465.778 311.88 466.634 312.28C467.498 312.672 468.13 313.296 468.53 314.152C468.738 314.576 468.866 315.024 468.914 315.496C468.962 315.968 468.986 316.476 468.986 317.02V325H466.766V322.036L467.198 322.42C466.662 323.412 465.978 324.152 465.146 324.64C464.322 325.12 463.306 325.36 462.098 325.36ZM462.542 323.308C463.254 323.308 463.866 323.184 464.378 322.936C464.89 322.68 465.302 322.356 465.614 321.964C465.926 321.572 466.13 321.164 466.226 320.74C466.362 320.356 466.438 319.924 466.454 319.444C466.478 318.964 466.49 318.58 466.49 318.292L467.306 318.592C466.514 318.712 465.794 318.82 465.146 318.916C464.498 319.012 463.91 319.108 463.382 319.204C462.862 319.292 462.398 319.4 461.99 319.528C461.646 319.648 461.338 319.792 461.066 319.96C460.802 320.128 460.59 320.332 460.43 320.572C460.278 320.812 460.202 321.104 460.202 321.448C460.202 321.784 460.286 322.096 460.454 322.384C460.622 322.664 460.878 322.888 461.222 323.056C461.566 323.224 462.006 323.308 462.542 323.308ZM478.186 325.36C476.946 325.36 475.906 325.06 475.066 324.46C474.226 323.852 473.59 323.032 473.158 322C472.726 320.968 472.51 319.804 472.51 318.508C472.51 317.212 472.722 316.048 473.146 315.016C473.578 313.984 474.21 313.172 475.042 312.58C475.882 311.98 476.914 311.68 478.138 311.68C479.354 311.68 480.402 311.98 481.282 312.58C482.17 313.172 482.854 313.984 483.334 315.016C483.814 316.04 484.054 317.204 484.054 318.508C484.054 319.804 483.814 320.972 483.334 322.012C482.862 323.044 482.186 323.86 481.306 324.46C480.434 325.06 479.394 325.36 478.186 325.36ZM472.09 330.76V312.04H474.322V321.364H474.61V330.76H472.09ZM477.838 323.092C478.638 323.092 479.298 322.888 479.818 322.48C480.346 322.072 480.738 321.524 480.994 320.836C481.258 320.14 481.39 319.364 481.39 318.508C481.39 317.66 481.258 316.892 480.994 316.204C480.738 315.516 480.342 314.968 479.806 314.56C479.27 314.152 478.586 313.948 477.754 313.948C476.97 313.948 476.322 314.14 475.81 314.524C475.306 314.908 474.93 315.444 474.682 316.132C474.442 316.82 474.322 317.612 474.322 318.508C474.322 319.404 474.442 320.196 474.682 320.884C474.922 321.572 475.302 322.112 475.822 322.504C476.342 322.896 477.014 323.092 477.838 323.092ZM491.425 325.348C489.849 325.348 488.565 325 487.573 324.304C486.581 323.608 485.973 322.628 485.749 321.364L488.317 320.968C488.477 321.64 488.845 322.172 489.421 322.564C490.005 322.948 490.729 323.14 491.593 323.14C492.377 323.14 492.989 322.98 493.429 322.66C493.877 322.34 494.101 321.9 494.101 321.34C494.101 321.012 494.021 320.748 493.861 320.548C493.709 320.34 493.385 320.144 492.889 319.96C492.393 319.776 491.637 319.548 490.621 319.276C489.509 318.988 488.625 318.68 487.969 318.352C487.321 318.016 486.857 317.628 486.577 317.188C486.305 316.74 486.169 316.2 486.169 315.568C486.169 314.784 486.377 314.1 486.793 313.516C487.209 312.932 487.793 312.48 488.545 312.16C489.305 311.84 490.193 311.68 491.209 311.68C492.201 311.68 493.085 311.836 493.861 312.148C494.637 312.46 495.265 312.904 495.745 313.48C496.225 314.048 496.513 314.716 496.609 315.484L494.041 315.952C493.953 315.328 493.661 314.836 493.165 314.476C492.669 314.116 492.025 313.92 491.233 313.888C490.473 313.856 489.857 313.984 489.385 314.272C488.913 314.552 488.677 314.94 488.677 315.436C488.677 315.724 488.765 315.968 488.941 316.168C489.125 316.368 489.477 316.56 489.997 316.744C490.517 316.928 491.285 317.148 492.301 317.404C493.389 317.684 494.253 317.996 494.893 318.34C495.533 318.676 495.989 319.08 496.261 319.552C496.541 320.016 496.681 320.58 496.681 321.244C496.681 322.524 496.213 323.528 495.277 324.256C494.349 324.984 493.065 325.348 491.425 325.348Z" fill="#144046"/>
<path d="M817.915 325.36C816.187 325.36 814.715 324.984 813.499 324.232C812.283 323.472 811.351 322.416 810.703 321.064C810.063 319.712 809.743 318.144 809.743 316.36C809.743 314.576 810.063 313.008 810.703 311.656C811.351 310.304 812.283 309.252 813.499 308.5C814.715 307.74 816.187 307.36 817.915 307.36C819.635 307.36 821.103 307.74 822.319 308.5C823.543 309.252 824.475 310.304 825.115 311.656C825.755 313.008 826.075 314.576 826.075 316.36C826.075 318.144 825.755 319.712 825.115 321.064C824.475 322.416 823.543 323.472 822.319 324.232C821.103 324.984 819.635 325.36 817.915 325.36ZM817.915 322.972C819.139 322.988 820.155 322.72 820.963 322.168C821.779 321.608 822.391 320.832 822.799 319.84C823.207 318.84 823.411 317.68 823.411 316.36C823.411 315.04 823.207 313.888 822.799 312.904C822.391 311.912 821.779 311.14 820.963 310.588C820.155 310.036 819.139 309.756 817.915 309.748C816.691 309.732 815.671 310 814.855 310.552C814.047 311.104 813.439 311.88 813.031 312.88C812.623 313.88 812.415 315.04 812.407 316.36C812.399 317.68 812.599 318.836 813.007 319.828C813.415 320.812 814.027 321.58 814.843 322.132C815.667 322.684 816.691 322.964 817.915 322.972ZM834.553 325.36C833.313 325.36 832.273 325.06 831.433 324.46C830.593 323.852 829.957 323.032 829.525 322C829.093 320.968 828.877 319.804 828.877 318.508C828.877 317.212 829.089 316.048 829.513 315.016C829.945 313.984 830.577 313.172 831.409 312.58C832.249 311.98 833.281 311.68 834.505 311.68C835.721 311.68 836.769 311.98 837.649 312.58C838.537 313.172 839.221 313.984 839.701 315.016C840.181 316.04 840.421 317.204 840.421 318.508C840.421 319.804 840.181 320.972 839.701 322.012C839.229 323.044 838.553 323.86 837.673 324.46C836.801 325.06 835.761 325.36 834.553 325.36ZM828.457 330.76V312.04H830.689V321.364H830.977V330.76H828.457ZM834.205 323.092C835.005 323.092 835.665 322.888 836.185 322.48C836.713 322.072 837.105 321.524 837.361 320.836C837.625 320.14 837.757 319.364 837.757 318.508C837.757 317.66 837.625 316.892 837.361 316.204C837.105 315.516 836.709 314.968 836.173 314.56C835.637 314.152 834.953 313.948 834.121 313.948C833.337 313.948 832.689 314.14 832.177 314.524C831.673 314.908 831.297 315.444 831.049 316.132C830.809 316.82 830.689 317.612 830.689 318.508C830.689 319.404 830.809 320.196 831.049 320.884C831.289 321.572 831.669 322.112 832.189 322.504C832.709 322.896 833.381 323.092 834.205 323.092ZM848.819 325.36C847.531 325.36 846.399 325.08 845.423 324.52C844.455 323.952 843.699 323.164 843.155 322.156C842.619 321.14 842.351 319.964 842.351 318.628C842.351 317.212 842.615 315.984 843.143 314.944C843.679 313.904 844.423 313.1 845.375 312.532C846.327 311.964 847.435 311.68 848.699 311.68C850.019 311.68 851.143 311.988 852.071 312.604C852.999 313.212 853.691 314.08 854.147 315.208C854.611 316.336 854.795 317.676 854.699 319.228H852.191V318.316C852.175 316.812 851.887 315.7 851.327 314.98C850.775 314.26 849.931 313.9 848.795 313.9C847.539 313.9 846.595 314.296 845.963 315.088C845.331 315.88 845.015 317.024 845.015 318.52C845.015 319.944 845.331 321.048 845.963 321.832C846.595 322.608 847.507 322.996 848.699 322.996C849.483 322.996 850.159 322.82 850.727 322.468C851.303 322.108 851.751 321.596 852.071 320.932L854.531 321.712C854.027 322.872 853.263 323.772 852.239 324.412C851.215 325.044 850.075 325.36 848.819 325.36ZM844.199 319.228V317.272H853.451V319.228H844.199ZM866.135 325V318.628C866.135 318.124 866.091 317.608 866.003 317.08C865.923 316.544 865.763 316.048 865.523 315.592C865.291 315.136 864.959 314.768 864.527 314.488C864.103 314.208 863.547 314.068 862.859 314.068C862.411 314.068 861.987 314.144 861.587 314.296C861.187 314.44 860.835 314.676 860.531 315.004C860.235 315.332 859.999 315.764 859.823 316.3C859.655 316.836 859.571 317.488 859.571 318.256L858.011 317.668C858.011 316.492 858.231 315.456 858.671 314.56C859.111 313.656 859.743 312.952 860.567 312.448C861.391 311.944 862.387 311.692 863.555 311.692C864.451 311.692 865.203 311.836 865.811 312.124C866.419 312.412 866.911 312.792 867.287 313.264C867.671 313.728 867.963 314.236 868.163 314.788C868.363 315.34 868.499 315.88 868.571 316.408C868.643 316.936 868.679 317.4 868.679 317.8V325H866.135ZM857.027 325V312.04H859.271V315.784H859.571V325H857.027ZM876.61 325V307.72H882.022C882.182 307.72 882.478 307.724 882.91 307.732C883.35 307.74 883.77 307.772 884.17 307.828C885.522 307.996 886.658 308.48 887.578 309.28C888.506 310.08 889.206 311.096 889.678 312.328C890.15 313.552 890.386 314.896 890.386 316.36C890.386 317.832 890.15 319.184 889.678 320.416C889.206 321.64 888.506 322.652 887.578 323.452C886.658 324.244 885.522 324.724 884.17 324.892C883.77 324.948 883.35 324.98 882.91 324.988C882.478 324.996 882.182 325 882.022 325H876.61ZM879.178 322.612H882.022C882.294 322.612 882.618 322.604 882.994 322.588C883.37 322.572 883.702 322.54 883.99 322.492C884.87 322.324 885.582 321.944 886.126 321.352C886.678 320.752 887.082 320.016 887.338 319.144C887.594 318.272 887.722 317.344 887.722 316.36C887.722 315.344 887.59 314.404 887.326 313.54C887.062 312.668 886.654 311.94 886.102 311.356C885.558 310.764 884.854 310.388 883.99 310.228C883.702 310.172 883.366 310.14 882.982 310.132C882.606 310.116 882.286 310.108 882.022 310.108H879.178V322.612ZM896.84 325.36C895.88 325.36 895.076 325.184 894.428 324.832C893.78 324.472 893.288 324 892.952 323.416C892.624 322.824 892.46 322.176 892.46 321.472C892.46 320.816 892.576 320.24 892.808 319.744C893.04 319.248 893.384 318.828 893.84 318.484C894.296 318.132 894.856 317.848 895.52 317.632C896.096 317.464 896.748 317.316 897.476 317.188C898.204 317.06 898.968 316.94 899.768 316.828C900.576 316.716 901.376 316.604 902.168 316.492L901.256 316.996C901.272 315.98 901.056 315.228 900.608 314.74C900.168 314.244 899.408 313.996 898.328 313.996C897.648 313.996 897.024 314.156 896.456 314.476C895.888 314.788 895.492 315.308 895.268 316.036L892.928 315.316C893.248 314.204 893.856 313.32 894.752 312.664C895.656 312.008 896.856 311.68 898.352 311.68C899.512 311.68 900.52 311.88 901.376 312.28C902.24 312.672 902.872 313.296 903.272 314.152C903.48 314.576 903.608 315.024 903.656 315.496C903.704 315.968 903.728 316.476 903.728 317.02V325H901.508V322.036L901.94 322.42C901.404 323.412 900.72 324.152 899.888 324.64C899.064 325.12 898.048 325.36 896.84 325.36ZM897.284 323.308C897.996 323.308 898.608 323.184 899.12 322.936C899.632 322.68 900.044 322.356 900.356 321.964C900.668 321.572 900.872 321.164 900.968 320.74C901.104 320.356 901.18 319.924 901.196 319.444C901.22 318.964 901.232 318.58 901.232 318.292L902.048 318.592C901.256 318.712 900.536 318.82 899.888 318.916C899.24 319.012 898.652 319.108 898.124 319.204C897.604 319.292 897.14 319.4 896.732 319.528C896.388 319.648 896.08 319.792 895.808 319.96C895.544 320.128 895.332 320.332 895.172 320.572C895.02 320.812 894.944 321.104 894.944 321.448C894.944 321.784 895.028 322.096 895.196 322.384C895.364 322.664 895.62 322.888 895.964 323.056C896.308 323.224 896.748 323.308 897.284 323.308ZM914.26 325C913.444 325.16 912.644 325.228 911.86 325.204C911.076 325.18 910.376 325.028 909.76 324.748C909.144 324.468 908.68 324.028 908.368 323.428C908.088 322.892 907.936 322.348 907.912 321.796C907.896 321.236 907.888 320.604 907.888 319.9V308.44H910.408V319.78C910.408 320.3 910.412 320.752 910.42 321.136C910.436 321.52 910.52 321.844 910.672 322.108C910.96 322.604 911.416 322.888 912.04 322.96C912.672 323.024 913.412 322.996 914.26 322.876V325ZM905.404 314.056V312.04H914.26V314.056H905.404ZM920.653 325.36C919.693 325.36 918.889 325.184 918.241 324.832C917.593 324.472 917.101 324 916.765 323.416C916.437 322.824 916.273 322.176 916.273 321.472C916.273 320.816 916.389 320.24 916.621 319.744C916.853 319.248 917.197 318.828 917.653 318.484C918.109 318.132 918.669 317.848 919.333 317.632C919.909 317.464 920.561 317.316 921.289 317.188C922.017 317.06 922.781 316.94 923.581 316.828C924.389 316.716 925.189 316.604 925.981 316.492L925.069 316.996C925.085 315.98 924.869 315.228 924.421 314.74C923.981 314.244 923.221 313.996 922.141 313.996C921.461 313.996 920.837 314.156 920.269 314.476C919.701 314.788 919.305 315.308 919.081 316.036L916.741 315.316C917.061 314.204 917.669 313.32 918.565 312.664C919.469 312.008 920.669 311.68 922.165 311.68C923.325 311.68 924.333 311.88 925.189 312.28C926.053 312.672 926.685 313.296 927.085 314.152C927.293 314.576 927.421 315.024 927.469 315.496C927.517 315.968 927.541 316.476 927.541 317.02V325H925.321V322.036L925.753 322.42C925.217 323.412 924.533 324.152 923.701 324.64C922.877 325.12 921.861 325.36 920.653 325.36ZM921.097 323.308C921.809 323.308 922.421 323.184 922.933 322.936C923.445 322.68 923.857 322.356 924.169 321.964C924.481 321.572 924.685 321.164 924.781 320.74C924.917 320.356 924.993 319.924 925.009 319.444C925.033 318.964 925.045 318.58 925.045 318.292L925.861 318.592C925.069 318.712 924.349 318.82 923.701 318.916C923.053 319.012 922.465 319.108 921.937 319.204C921.417 319.292 920.953 319.4 920.545 319.528C920.201 319.648 919.893 319.792 919.621 319.96C919.357 320.128 919.145 320.332 918.985 320.572C918.833 320.812 918.757 321.104 918.757 321.448C918.757 321.784 918.841 322.096 919.009 322.384C919.177 322.664 919.433 322.888 919.777 323.056C920.121 323.224 920.561 323.308 921.097 323.308Z" fill="#144046"/>
<path d="M622.707 683V665.72H629.499C630.595 665.72 631.515 665.944 632.259 666.392C633.003 666.84 633.563 667.42 633.939 668.132C634.315 668.836 634.503 669.58 634.503 670.364C634.503 671.316 634.267 672.132 633.795 672.812C633.331 673.492 632.703 673.956 631.911 674.204L631.887 673.616C632.991 673.888 633.839 674.42 634.431 675.212C635.023 675.996 635.319 676.912 635.319 677.96C635.319 678.976 635.115 679.86 634.707 680.612C634.307 681.364 633.719 681.952 632.943 682.376C632.175 682.792 631.243 683 630.147 683H622.707ZM625.251 680.612H629.763C630.331 680.612 630.839 680.504 631.287 680.288C631.743 680.072 632.099 679.764 632.355 679.364C632.619 678.956 632.751 678.472 632.751 677.912C632.751 677.392 632.635 676.924 632.403 676.508C632.179 676.084 631.851 675.752 631.419 675.512C630.995 675.264 630.495 675.14 629.919 675.14H625.251V680.612ZM625.251 672.776H629.463C629.927 672.776 630.343 672.684 630.711 672.5C631.087 672.308 631.383 672.036 631.599 671.684C631.823 671.324 631.935 670.892 631.935 670.388C631.935 669.716 631.711 669.164 631.263 668.732C630.815 668.3 630.215 668.084 629.463 668.084H625.251V672.776ZM637.947 667.916V665.48H640.455V667.916H637.947ZM637.947 683V670.04H640.455V683H637.947ZM651.475 683C650.659 683.16 649.859 683.228 649.075 683.204C648.291 683.18 647.591 683.028 646.975 682.748C646.359 682.468 645.895 682.028 645.583 681.428C645.303 680.892 645.151 680.348 645.127 679.796C645.111 679.236 645.103 678.604 645.103 677.9V666.44H647.623V677.78C647.623 678.3 647.627 678.752 647.635 679.136C647.651 679.52 647.735 679.844 647.887 680.108C648.175 680.604 648.631 680.888 649.255 680.96C649.887 681.024 650.627 680.996 651.475 680.876V683ZM642.619 672.056V670.04H651.475V672.056H642.619ZM659.165 683.36C657.837 683.36 656.709 683.064 655.781 682.472C654.853 681.88 654.141 681.068 653.645 680.036C653.157 679.004 652.909 677.832 652.901 676.52C652.909 675.184 653.165 674.004 653.669 672.98C654.173 671.948 654.893 671.14 655.829 670.556C656.765 669.972 657.889 669.68 659.201 669.68C660.617 669.68 661.825 670.032 662.825 670.736C663.833 671.44 664.497 672.404 664.817 673.628L662.321 674.348C662.073 673.62 661.665 673.056 661.097 672.656C660.537 672.248 659.893 672.044 659.165 672.044C658.341 672.044 657.665 672.24 657.137 672.632C656.609 673.016 656.217 673.544 655.961 674.216C655.705 674.888 655.573 675.656 655.565 676.52C655.573 677.856 655.877 678.936 656.477 679.76C657.085 680.584 657.981 680.996 659.165 680.996C659.973 680.996 660.625 680.812 661.121 680.444C661.625 680.068 662.009 679.532 662.273 678.836L664.817 679.436C664.393 680.7 663.693 681.672 662.717 682.352C661.741 683.024 660.557 683.36 659.165 683.36ZM672.538 683.36C671.242 683.36 670.118 683.068 669.166 682.484C668.214 681.9 667.478 681.096 666.958 680.072C666.446 679.04 666.19 677.852 666.19 676.508C666.19 675.156 666.454 673.968 666.982 672.944C667.51 671.912 668.25 671.112 669.202 670.544C670.154 669.968 671.266 669.68 672.538 669.68C673.834 669.68 674.958 669.972 675.91 670.556C676.862 671.14 677.598 671.944 678.118 672.968C678.638 673.992 678.898 675.172 678.898 676.508C678.898 677.86 678.634 679.052 678.106 680.084C677.586 681.108 676.85 681.912 675.898 682.496C674.946 683.072 673.826 683.36 672.538 683.36ZM672.538 680.996C673.778 680.996 674.702 680.58 675.31 679.748C675.926 678.908 676.234 677.828 676.234 676.508C676.234 675.156 675.922 674.076 675.298 673.268C674.682 672.452 673.762 672.044 672.538 672.044C671.698 672.044 671.006 672.236 670.462 672.62C669.918 672.996 669.514 673.52 669.25 674.192C668.986 674.856 668.854 675.628 668.854 676.508C668.854 677.868 669.166 678.956 669.79 679.772C670.414 680.588 671.33 680.996 672.538 680.996ZM681.775 667.916V665.48H684.283V667.916H681.775ZM681.775 683V670.04H684.283V683H681.775ZM696.983 683V676.628C696.983 676.124 696.939 675.608 696.851 675.08C696.771 674.544 696.611 674.048 696.371 673.592C696.139 673.136 695.807 672.768 695.375 672.488C694.951 672.208 694.395 672.068 693.707 672.068C693.259 672.068 692.835 672.144 692.435 672.296C692.035 672.44 691.683 672.676 691.379 673.004C691.083 673.332 690.847 673.764 690.671 674.3C690.503 674.836 690.419 675.488 690.419 676.256L688.859 675.668C688.859 674.492 689.079 673.456 689.519 672.56C689.959 671.656 690.591 670.952 691.415 670.448C692.239 669.944 693.235 669.692 694.403 669.692C695.299 669.692 696.051 669.836 696.659 670.124C697.267 670.412 697.759 670.792 698.135 671.264C698.519 671.728 698.811 672.236 699.011 672.788C699.211 673.34 699.347 673.88 699.419 674.408C699.491 674.936 699.527 675.4 699.527 675.8V683H696.983ZM687.875 683V670.04H690.119V673.784H690.419V683H687.875Z" fill="#144046"/>
<path d="M643.08 325.36C641.352 325.36 639.88 324.984 638.664 324.232C637.448 323.472 636.516 322.416 635.868 321.064C635.228 319.712 634.908 318.144 634.908 316.36C634.908 314.576 635.228 313.008 635.868 311.656C636.516 310.304 637.448 309.252 638.664 308.5C639.88 307.74 641.352 307.36 643.08 307.36C644.8 307.36 646.268 307.74 647.484 308.5C648.708 309.252 649.64 310.304 650.28 311.656C650.92 313.008 651.24 314.576 651.24 316.36C651.24 318.144 650.92 319.712 650.28 321.064C649.64 322.416 648.708 323.472 647.484 324.232C646.268 324.984 644.8 325.36 643.08 325.36ZM643.08 322.972C644.304 322.988 645.32 322.72 646.128 322.168C646.944 321.608 647.556 320.832 647.964 319.84C648.372 318.84 648.576 317.68 648.576 316.36C648.576 315.04 648.372 313.888 647.964 312.904C647.556 311.912 646.944 311.14 646.128 310.588C645.32 310.036 644.304 309.756 643.08 309.748C641.856 309.732 640.836 310 640.02 310.552C639.212 311.104 638.604 311.88 638.196 312.88C637.788 313.88 637.58 315.04 637.572 316.36C637.564 317.68 637.764 318.836 638.172 319.828C638.58 320.812 639.192 321.58 640.008 322.132C640.832 322.684 641.856 322.964 643.08 322.972ZM659.897 325.36C658.657 325.36 657.537 325.148 656.537 324.724C655.545 324.292 654.725 323.68 654.077 322.888C653.437 322.088 653.021 321.14 652.829 320.044L655.445 319.648C655.709 320.704 656.261 321.528 657.101 322.12C657.941 322.704 658.921 322.996 660.041 322.996C660.737 322.996 661.377 322.888 661.961 322.672C662.545 322.448 663.013 322.132 663.365 321.724C663.725 321.308 663.905 320.812 663.905 320.236C663.905 319.924 663.849 319.648 663.737 319.408C663.633 319.168 663.485 318.96 663.293 318.784C663.109 318.6 662.881 318.444 662.609 318.316C662.345 318.18 662.053 318.064 661.733 317.968L657.305 316.66C656.873 316.532 656.433 316.368 655.985 316.168C655.537 315.96 655.125 315.692 654.749 315.364C654.381 315.028 654.081 314.616 653.849 314.128C653.617 313.632 653.501 313.032 653.501 312.328C653.501 311.264 653.773 310.364 654.317 309.628C654.869 308.884 655.613 308.324 656.549 307.948C657.485 307.564 658.533 307.372 659.693 307.372C660.861 307.388 661.905 307.596 662.825 307.996C663.753 308.396 664.521 308.972 665.129 309.724C665.745 310.468 666.169 311.372 666.401 312.436L663.713 312.892C663.593 312.244 663.337 311.688 662.945 311.224C662.553 310.752 662.073 310.392 661.505 310.144C660.937 309.888 660.321 309.756 659.657 309.748C659.017 309.732 658.429 309.828 657.893 310.036C657.365 310.244 656.941 310.536 656.621 310.912C656.309 311.288 656.153 311.72 656.153 312.208C656.153 312.688 656.293 313.076 656.573 313.372C656.853 313.668 657.197 313.904 657.605 314.08C658.021 314.248 658.433 314.388 658.841 314.5L662.033 315.4C662.433 315.512 662.885 315.664 663.389 315.856C663.901 316.04 664.393 316.3 664.865 316.636C665.345 316.972 665.741 317.42 666.053 317.98C666.365 318.532 666.521 319.228 666.521 320.068C666.521 320.94 666.345 321.708 665.993 322.372C665.641 323.028 665.157 323.58 664.541 324.028C663.933 324.468 663.229 324.8 662.429 325.024C661.629 325.248 660.785 325.36 659.897 325.36ZM669.078 325V307.72H671.346L677.61 320.716L683.838 307.72H686.13V324.988H683.754V313.168L678.174 325H677.034L671.442 313.168V325H669.078Z" fill="#144046"/>
<path d="M500.388 514.36C498.66 514.36 497.188 513.984 495.972 513.232C494.756 512.472 493.824 511.416 493.176 510.064C492.536 508.712 492.216 507.144 492.216 505.36C492.216 503.576 492.536 502.008 493.176 500.656C493.824 499.304 494.756 498.252 495.972 497.5C497.188 496.74 498.66 496.36 500.388 496.36C502.38 496.36 504.028 496.864 505.332 497.872C506.644 498.88 507.556 500.236 508.068 501.94L505.524 502.624C505.188 501.416 504.588 500.468 503.724 499.78C502.868 499.092 501.756 498.748 500.388 498.748C499.164 498.748 498.144 499.024 497.328 499.576C496.512 500.128 495.896 500.9 495.48 501.892C495.072 502.884 494.868 504.04 494.868 505.36C494.86 506.68 495.06 507.836 495.468 508.828C495.884 509.82 496.5 510.592 497.316 511.144C498.14 511.696 499.164 511.972 500.388 511.972C501.756 511.972 502.868 511.628 503.724 510.94C504.588 510.244 505.188 509.296 505.524 508.096L508.068 508.78C507.556 510.484 506.644 511.84 505.332 512.848C504.028 513.856 502.38 514.36 500.388 514.36ZM510.707 514V501.04H512.939V504.184L512.627 503.776C512.787 503.36 512.995 502.98 513.251 502.636C513.507 502.284 513.803 501.996 514.139 501.772C514.467 501.532 514.831 501.348 515.231 501.22C515.639 501.084 516.055 501.004 516.479 500.98C516.903 500.948 517.311 500.968 517.703 501.04V503.392C517.279 503.28 516.807 503.248 516.287 503.296C515.775 503.344 515.303 503.508 514.871 503.788C514.463 504.052 514.139 504.372 513.899 504.748C513.667 505.124 513.499 505.544 513.395 506.008C513.291 506.464 513.239 506.948 513.239 507.46V514H510.707ZM523.274 514.36C522.314 514.36 521.51 514.184 520.862 513.832C520.214 513.472 519.722 513 519.386 512.416C519.058 511.824 518.894 511.176 518.894 510.472C518.894 509.816 519.01 509.24 519.242 508.744C519.474 508.248 519.818 507.828 520.274 507.484C520.73 507.132 521.29 506.848 521.954 506.632C522.53 506.464 523.182 506.316 523.91 506.188C524.638 506.06 525.402 505.94 526.202 505.828C527.01 505.716 527.81 505.604 528.602 505.492L527.69 505.996C527.706 504.98 527.49 504.228 527.042 503.74C526.602 503.244 525.842 502.996 524.762 502.996C524.082 502.996 523.458 503.156 522.89 503.476C522.322 503.788 521.926 504.308 521.702 505.036L519.362 504.316C519.682 503.204 520.29 502.32 521.186 501.664C522.09 501.008 523.29 500.68 524.786 500.68C525.946 500.68 526.954 500.88 527.81 501.28C528.674 501.672 529.306 502.296 529.706 503.152C529.914 503.576 530.042 504.024 530.09 504.496C530.138 504.968 530.162 505.476 530.162 506.02V514H527.942V511.036L528.374 511.42C527.838 512.412 527.154 513.152 526.322 513.64C525.498 514.12 524.482 514.36 523.274 514.36ZM523.718 512.308C524.43 512.308 525.042 512.184 525.554 511.936C526.066 511.68 526.478 511.356 526.79 510.964C527.102 510.572 527.306 510.164 527.402 509.74C527.538 509.356 527.614 508.924 527.63 508.444C527.654 507.964 527.666 507.58 527.666 507.292L528.482 507.592C527.69 507.712 526.97 507.82 526.322 507.916C525.674 508.012 525.086 508.108 524.558 508.204C524.038 508.292 523.574 508.4 523.166 508.528C522.822 508.648 522.514 508.792 522.242 508.96C521.978 509.128 521.766 509.332 521.606 509.572C521.454 509.812 521.378 510.104 521.378 510.448C521.378 510.784 521.462 511.096 521.63 511.384C521.798 511.664 522.054 511.888 522.398 512.056C522.742 512.224 523.182 512.308 523.718 512.308ZM539.362 514.36C538.122 514.36 537.082 514.06 536.242 513.46C535.402 512.852 534.766 512.032 534.334 511C533.902 509.968 533.686 508.804 533.686 507.508C533.686 506.212 533.898 505.048 534.322 504.016C534.754 502.984 535.386 502.172 536.218 501.58C537.058 500.98 538.09 500.68 539.314 500.68C540.53 500.68 541.578 500.98 542.458 501.58C543.346 502.172 544.03 502.984 544.51 504.016C544.99 505.04 545.23 506.204 545.23 507.508C545.23 508.804 544.99 509.972 544.51 511.012C544.038 512.044 543.362 512.86 542.482 513.46C541.61 514.06 540.57 514.36 539.362 514.36ZM533.266 519.76V501.04H535.498V510.364H535.786V519.76H533.266ZM539.014 512.092C539.814 512.092 540.474 511.888 540.994 511.48C541.522 511.072 541.914 510.524 542.17 509.836C542.434 509.14 542.566 508.364 542.566 507.508C542.566 506.66 542.434 505.892 542.17 505.204C541.914 504.516 541.518 503.968 540.982 503.56C540.446 503.152 539.762 502.948 538.93 502.948C538.146 502.948 537.498 503.14 536.986 503.524C536.482 503.908 536.106 504.444 535.858 505.132C535.618 505.82 535.498 506.612 535.498 507.508C535.498 508.404 535.618 509.196 535.858 509.884C536.098 510.572 536.478 511.112 536.998 511.504C537.518 511.896 538.19 512.092 539.014 512.092ZM553.963 514.36C552.723 514.36 551.683 514.06 550.843 513.46C550.003 512.852 549.367 512.032 548.935 511C548.503 509.968 548.287 508.804 548.287 507.508C548.287 506.212 548.499 505.048 548.923 504.016C549.355 502.984 549.987 502.172 550.819 501.58C551.659 500.98 552.691 500.68 553.915 500.68C555.131 500.68 556.179 500.98 557.059 501.58C557.947 502.172 558.631 502.984 559.111 504.016C559.591 505.04 559.831 506.204 559.831 507.508C559.831 508.804 559.591 509.972 559.111 511.012C558.639 512.044 557.963 512.86 557.083 513.46C556.211 514.06 555.171 514.36 553.963 514.36ZM547.867 519.76V501.04H550.099V510.364H550.387V519.76H547.867ZM553.615 512.092C554.415 512.092 555.075 511.888 555.595 511.48C556.123 511.072 556.515 510.524 556.771 509.836C557.035 509.14 557.167 508.364 557.167 507.508C557.167 506.66 557.035 505.892 556.771 505.204C556.515 504.516 556.119 503.968 555.583 503.56C555.047 503.152 554.363 502.948 553.531 502.948C552.747 502.948 552.099 503.14 551.587 503.524C551.083 503.908 550.707 504.444 550.459 505.132C550.219 505.82 550.099 506.612 550.099 507.508C550.099 508.404 550.219 509.196 550.459 509.884C550.699 510.572 551.079 511.112 551.599 511.504C552.119 511.896 552.791 512.092 553.615 512.092ZM563.764 519.76L566.272 512.932L566.308 514.948L560.656 501.04H563.272L567.496 511.78H566.728L570.76 501.04H573.304L566.152 519.76H563.764ZM467.256 547.36C466.096 547.36 465.028 547.16 464.052 546.76C463.076 546.352 462.228 545.76 461.508 544.984C460.788 544.208 460.228 543.264 459.828 542.152C459.428 541.04 459.228 539.776 459.228 538.36C459.228 536.496 459.568 534.896 460.248 533.56C460.928 532.216 461.872 531.184 463.08 530.464C464.288 529.736 465.68 529.372 467.256 529.372C469.288 529.372 470.908 529.844 472.116 530.788C473.332 531.732 474.16 533.036 474.6 534.7L472.056 535.156C471.704 534.124 471.136 533.3 470.352 532.684C469.568 532.068 468.584 531.756 467.4 531.748C466.176 531.74 465.156 532.012 464.34 532.564C463.532 533.116 462.924 533.892 462.516 534.892C462.108 535.884 461.9 537.04 461.892 538.36C461.884 539.68 462.084 540.836 462.492 541.828C462.9 542.812 463.512 543.58 464.328 544.132C465.152 544.684 466.176 544.964 467.4 544.972C468.384 544.988 469.228 544.808 469.932 544.432C470.644 544.048 471.208 543.488 471.624 542.752C472.04 542.016 472.308 541.112 472.428 540.04H469.068V538.024H475.092C475.108 538.168 475.12 538.36 475.128 538.6C475.136 538.832 475.14 538.98 475.14 539.044C475.14 540.644 474.832 542.072 474.216 543.328C473.6 544.584 472.704 545.572 471.528 546.292C470.352 547.004 468.928 547.36 467.256 547.36ZM483.16 547.36C481.864 547.36 480.74 547.068 479.788 546.484C478.836 545.9 478.1 545.096 477.58 544.072C477.068 543.04 476.812 541.852 476.812 540.508C476.812 539.156 477.076 537.968 477.604 536.944C478.132 535.912 478.872 535.112 479.824 534.544C480.776 533.968 481.888 533.68 483.16 533.68C484.456 533.68 485.58 533.972 486.532 534.556C487.484 535.14 488.22 535.944 488.74 536.968C489.26 537.992 489.52 539.172 489.52 540.508C489.52 541.86 489.256 543.052 488.728 544.084C488.208 545.108 487.472 545.912 486.52 546.496C485.568 547.072 484.448 547.36 483.16 547.36ZM483.16 544.996C484.4 544.996 485.324 544.58 485.932 543.748C486.548 542.908 486.856 541.828 486.856 540.508C486.856 539.156 486.544 538.076 485.92 537.268C485.304 536.452 484.384 536.044 483.16 536.044C482.32 536.044 481.628 536.236 481.084 536.62C480.54 536.996 480.136 537.52 479.872 538.192C479.608 538.856 479.476 539.628 479.476 540.508C479.476 541.868 479.788 542.956 480.412 543.772C481.036 544.588 481.952 544.996 483.16 544.996ZM497.785 547.36C496.489 547.36 495.365 547.068 494.413 546.484C493.461 545.9 492.725 545.096 492.205 544.072C491.693 543.04 491.437 541.852 491.437 540.508C491.437 539.156 491.701 537.968 492.229 536.944C492.757 535.912 493.497 535.112 494.449 534.544C495.401 533.968 496.513 533.68 497.785 533.68C499.081 533.68 500.205 533.972 501.157 534.556C502.109 535.14 502.845 535.944 503.365 536.968C503.885 537.992 504.145 539.172 504.145 540.508C504.145 541.86 503.881 543.052 503.353 544.084C502.833 545.108 502.097 545.912 501.145 546.496C500.193 547.072 499.073 547.36 497.785 547.36ZM497.785 544.996C499.025 544.996 499.949 544.58 500.557 543.748C501.173 542.908 501.481 541.828 501.481 540.508C501.481 539.156 501.169 538.076 500.545 537.268C499.929 536.452 499.009 536.044 497.785 536.044C496.945 536.044 496.253 536.236 495.709 536.62C495.165 536.996 494.761 537.52 494.497 538.192C494.233 538.856 494.101 539.628 494.101 540.508C494.101 541.868 494.413 542.956 495.037 543.772C495.661 544.588 496.577 544.996 497.785 544.996ZM512.122 553.12C511.426 553.12 510.75 553.012 510.094 552.796C509.446 552.58 508.854 552.26 508.318 551.836C507.782 551.42 507.338 550.904 506.986 550.288L509.302 549.112C509.582 549.664 509.982 550.068 510.502 550.324C511.022 550.58 511.57 550.708 512.146 550.708C512.858 550.708 513.466 550.58 513.97 550.324C514.474 550.076 514.854 549.7 515.11 549.196C515.374 548.692 515.502 548.068 515.494 547.324V543.7H515.794V534.04H518.014V547.348C518.014 547.692 518.002 548.02 517.978 548.332C517.954 548.644 517.91 548.956 517.846 549.268C517.662 550.14 517.31 550.86 516.79 551.428C516.278 551.996 515.622 552.42 514.822 552.7C514.03 552.98 513.13 553.12 512.122 553.12ZM511.93 547.36C510.722 547.36 509.678 547.06 508.798 546.46C507.926 545.86 507.25 545.044 506.77 544.012C506.298 542.972 506.062 541.804 506.062 540.508C506.062 539.204 506.302 538.04 506.782 537.016C507.262 535.984 507.942 535.172 508.822 534.58C509.71 533.98 510.762 533.68 511.978 533.68C513.202 533.68 514.23 533.98 515.062 534.58C515.902 535.172 516.534 535.984 516.958 537.016C517.39 538.048 517.606 539.212 517.606 540.508C517.606 541.804 517.39 542.968 516.958 544C516.526 545.032 515.89 545.852 515.05 546.46C514.21 547.06 513.17 547.36 511.93 547.36ZM512.278 545.092C513.102 545.092 513.774 544.896 514.294 544.504C514.814 544.112 515.194 543.572 515.434 542.884C515.674 542.196 515.794 541.404 515.794 540.508C515.794 539.612 515.67 538.82 515.422 538.132C515.182 537.444 514.806 536.908 514.294 536.524C513.79 536.14 513.146 535.948 512.362 535.948C511.53 535.948 510.846 536.152 510.31 536.56C509.774 536.968 509.374 537.516 509.11 538.204C508.854 538.892 508.726 539.66 508.726 540.508C508.726 541.364 508.854 542.14 509.11 542.836C509.374 543.524 509.766 544.072 510.286 544.48C510.814 544.888 511.478 545.092 512.278 545.092ZM521.623 547V529.36H524.131V547H521.623ZM533.483 547.36C532.195 547.36 531.063 547.08 530.087 546.52C529.119 545.952 528.363 545.164 527.819 544.156C527.283 543.14 527.015 541.964 527.015 540.628C527.015 539.212 527.279 537.984 527.807 536.944C528.343 535.904 529.087 535.1 530.039 534.532C530.991 533.964 532.099 533.68 533.363 533.68C534.683 533.68 535.807 533.988 536.735 534.604C537.663 535.212 538.355 536.08 538.811 537.208C539.275 538.336 539.459 539.676 539.363 541.228H536.855V540.316C536.839 538.812 536.551 537.7 535.991 536.98C535.439 536.26 534.595 535.9 533.459 535.9C532.203 535.9 531.259 536.296 530.627 537.088C529.995 537.88 529.679 539.024 529.679 540.52C529.679 541.944 529.995 543.048 530.627 543.832C531.259 544.608 532.171 544.996 533.363 544.996C534.147 544.996 534.823 544.82 535.391 544.468C535.967 544.108 536.415 543.596 536.735 542.932L539.195 543.712C538.691 544.872 537.927 545.772 536.903 546.412C535.879 547.044 534.739 547.36 533.483 547.36ZM528.863 541.228V539.272H538.115V541.228H528.863ZM546.86 547V529.72H549.128L555.392 542.716L561.62 529.72H563.912V546.988H561.536V535.168L555.956 547H554.816L549.224 535.168V547H546.86ZM570.934 547.36C569.974 547.36 569.17 547.184 568.522 546.832C567.874 546.472 567.382 546 567.046 545.416C566.718 544.824 566.554 544.176 566.554 543.472C566.554 542.816 566.67 542.24 566.902 541.744C567.134 541.248 567.478 540.828 567.934 540.484C568.39 540.132 568.95 539.848 569.614 539.632C570.19 539.464 570.842 539.316 571.57 539.188C572.298 539.06 573.062 538.94 573.862 538.828C574.67 538.716 575.47 538.604 576.262 538.492L575.35 538.996C575.366 537.98 575.15 537.228 574.702 536.74C574.262 536.244 573.502 535.996 572.422 535.996C571.742 535.996 571.118 536.156 570.55 536.476C569.982 536.788 569.586 537.308 569.362 538.036L567.022 537.316C567.342 536.204 567.95 535.32 568.846 534.664C569.75 534.008 570.95 533.68 572.446 533.68C573.606 533.68 574.614 533.88 575.47 534.28C576.334 534.672 576.966 535.296 577.366 536.152C577.574 536.576 577.702 537.024 577.75 537.496C577.798 537.968 577.822 538.476 577.822 539.02V547H575.602V544.036L576.034 544.42C575.498 545.412 574.814 546.152 573.982 546.64C573.158 547.12 572.142 547.36 570.934 547.36ZM571.378 545.308C572.09 545.308 572.702 545.184 573.214 544.936C573.726 544.68 574.138 544.356 574.45 543.964C574.762 543.572 574.966 543.164 575.062 542.74C575.198 542.356 575.274 541.924 575.29 541.444C575.314 540.964 575.326 540.58 575.326 540.292L576.142 540.592C575.35 540.712 574.63 540.82 573.982 540.916C573.334 541.012 572.746 541.108 572.218 541.204C571.698 541.292 571.234 541.4 570.826 541.528C570.482 541.648 570.174 541.792 569.902 541.96C569.638 542.128 569.426 542.332 569.266 542.572C569.114 542.812 569.038 543.104 569.038 543.448C569.038 543.784 569.122 544.096 569.29 544.384C569.458 544.664 569.714 544.888 570.058 545.056C570.402 545.224 570.842 545.308 571.378 545.308ZM587.022 547.36C585.782 547.36 584.742 547.06 583.902 546.46C583.062 545.852 582.426 545.032 581.994 544C581.562 542.968 581.346 541.804 581.346 540.508C581.346 539.212 581.558 538.048 581.982 537.016C582.414 535.984 583.046 535.172 583.878 534.58C584.718 533.98 585.75 533.68 586.974 533.68C588.19 533.68 589.238 533.98 590.118 534.58C591.006 535.172 591.69 535.984 592.17 537.016C592.65 538.04 592.89 539.204 592.89 540.508C592.89 541.804 592.65 542.972 592.17 544.012C591.698 545.044 591.022 545.86 590.142 546.46C589.27 547.06 588.23 547.36 587.022 547.36ZM580.926 552.76V534.04H583.158V543.364H583.446V552.76H580.926ZM586.674 545.092C587.474 545.092 588.134 544.888 588.654 544.48C589.182 544.072 589.574 543.524 589.83 542.836C590.094 542.14 590.226 541.364 590.226 540.508C590.226 539.66 590.094 538.892 589.83 538.204C589.574 537.516 589.178 536.968 588.642 536.56C588.106 536.152 587.422 535.948 586.59 535.948C585.806 535.948 585.158 536.14 584.646 536.524C584.142 536.908 583.766 537.444 583.518 538.132C583.278 538.82 583.158 539.612 583.158 540.508C583.158 541.404 583.278 542.196 583.518 542.884C583.758 543.572 584.138 544.112 584.658 544.504C585.178 544.896 585.85 545.092 586.674 545.092ZM600.261 547.348C598.685 547.348 597.401 547 596.409 546.304C595.417 545.608 594.809 544.628 594.585 543.364L597.153 542.968C597.313 543.64 597.681 544.172 598.257 544.564C598.841 544.948 599.565 545.14 600.429 545.14C601.213 545.14 601.825 544.98 602.265 544.66C602.713 544.34 602.937 543.9 602.937 543.34C602.937 543.012 602.857 542.748 602.697 542.548C602.545 542.34 602.221 542.144 601.725 541.96C601.229 541.776 600.473 541.548 599.457 541.276C598.345 540.988 597.461 540.68 596.805 540.352C596.157 540.016 595.693 539.628 595.413 539.188C595.141 538.74 595.005 538.2 595.005 537.568C595.005 536.784 595.213 536.1 595.629 535.516C596.045 534.932 596.629 534.48 597.381 534.16C598.141 533.84 599.029 533.68 600.045 533.68C601.037 533.68 601.921 533.836 602.697 534.148C603.473 534.46 604.101 534.904 604.581 535.48C605.061 536.048 605.349 536.716 605.445 537.484L602.877 537.952C602.789 537.328 602.497 536.836 602.001 536.476C601.505 536.116 600.861 535.92 600.069 535.888C599.309 535.856 598.693 535.984 598.221 536.272C597.749 536.552 597.513 536.94 597.513 537.436C597.513 537.724 597.601 537.968 597.777 538.168C597.961 538.368 598.313 538.56 598.833 538.744C599.353 538.928 600.121 539.148 601.137 539.404C602.225 539.684 603.089 539.996 603.729 540.34C604.369 540.676 604.825 541.08 605.097 541.552C605.377 542.016 605.517 542.58 605.517 543.244C605.517 544.524 605.049 545.528 604.113 546.256C603.185 546.984 601.901 547.348 600.261 547.348Z" fill="#144046"/>
<path d="M721.602 514V496.72H728.394C729.49 496.72 730.41 496.944 731.154 497.392C731.898 497.84 732.458 498.42 732.834 499.132C733.21 499.836 733.398 500.58 733.398 501.364C733.398 502.316 733.162 503.132 732.69 503.812C732.226 504.492 731.598 504.956 730.806 505.204L730.782 504.616C731.886 504.888 732.734 505.42 733.326 506.212C733.918 506.996 734.214 507.912 734.214 508.96C734.214 509.976 734.01 510.86 733.602 511.612C733.202 512.364 732.614 512.952 731.838 513.376C731.07 513.792 730.138 514 729.042 514H721.602ZM724.146 511.612H728.658C729.226 511.612 729.734 511.504 730.182 511.288C730.638 511.072 730.994 510.764 731.25 510.364C731.514 509.956 731.646 509.472 731.646 508.912C731.646 508.392 731.53 507.924 731.298 507.508C731.074 507.084 730.746 506.752 730.314 506.512C729.89 506.264 729.39 506.14 728.814 506.14H724.146V511.612ZM724.146 503.776H728.358C728.822 503.776 729.238 503.684 729.606 503.5C729.982 503.308 730.278 503.036 730.494 502.684C730.718 502.324 730.83 501.892 730.83 501.388C730.83 500.716 730.606 500.164 730.158 499.732C729.71 499.3 729.11 499.084 728.358 499.084H724.146V503.776ZM736.842 514V496.36H739.35V514H736.842ZM748.581 514.36C747.285 514.36 746.161 514.068 745.209 513.484C744.257 512.9 743.521 512.096 743.001 511.072C742.489 510.04 742.233 508.852 742.233 507.508C742.233 506.156 742.497 504.968 743.025 503.944C743.553 502.912 744.293 502.112 745.245 501.544C746.197 500.968 747.309 500.68 748.581 500.68C749.877 500.68 751.001 500.972 751.953 501.556C752.905 502.14 753.641 502.944 754.161 503.968C754.681 504.992 754.941 506.172 754.941 507.508C754.941 508.86 754.677 510.052 754.149 511.084C753.629 512.108 752.893 512.912 751.941 513.496C750.989 514.072 749.869 514.36 748.581 514.36ZM748.581 511.996C749.821 511.996 750.745 511.58 751.353 510.748C751.969 509.908 752.277 508.828 752.277 507.508C752.277 506.156 751.965 505.076 751.341 504.268C750.725 503.452 749.805 503.044 748.581 503.044C747.741 503.044 747.049 503.236 746.505 503.62C745.961 503.996 745.557 504.52 745.293 505.192C745.029 505.856 744.897 506.628 744.897 507.508C744.897 508.868 745.209 509.956 745.833 510.772C746.457 511.588 747.373 511.996 748.581 511.996ZM763.122 514.36C761.794 514.36 760.666 514.064 759.738 513.472C758.81 512.88 758.098 512.068 757.602 511.036C757.114 510.004 756.866 508.832 756.858 507.52C756.866 506.184 757.122 505.004 757.626 503.98C758.13 502.948 758.85 502.14 759.786 501.556C760.722 500.972 761.846 500.68 763.158 500.68C764.574 500.68 765.782 501.032 766.782 501.736C767.79 502.44 768.454 503.404 768.774 504.628L766.278 505.348C766.03 504.62 765.622 504.056 765.054 503.656C764.494 503.248 763.85 503.044 763.122 503.044C762.298 503.044 761.622 503.24 761.094 503.632C760.566 504.016 760.174 504.544 759.918 505.216C759.662 505.888 759.53 506.656 759.522 507.52C759.53 508.856 759.834 509.936 760.434 510.76C761.042 511.584 761.938 511.996 763.122 511.996C763.93 511.996 764.582 511.812 765.078 511.444C765.582 511.068 765.966 510.532 766.23 509.836L768.774 510.436C768.35 511.7 767.65 512.672 766.674 513.352C765.698 514.024 764.514 514.36 763.122 514.36ZM771.207 514L771.219 496.72H773.763V507.28L778.851 501.04H782.043L776.667 507.52L782.595 514H779.187L773.763 507.76V514H771.207ZM789.115 514.36C787.787 514.36 786.659 514.064 785.731 513.472C784.803 512.88 784.091 512.068 783.595 511.036C783.107 510.004 782.859 508.832 782.851 507.52C782.859 506.184 783.115 505.004 783.619 503.98C784.123 502.948 784.843 502.14 785.779 501.556C786.715 500.972 787.839 500.68 789.151 500.68C790.567 500.68 791.775 501.032 792.775 501.736C793.783 502.44 794.447 503.404 794.767 504.628L792.271 505.348C792.023 504.62 791.615 504.056 791.047 503.656C790.487 503.248 789.843 503.044 789.115 503.044C788.291 503.044 787.615 503.24 787.087 503.632C786.559 504.016 786.167 504.544 785.911 505.216C785.655 505.888 785.523 506.656 785.515 507.52C785.523 508.856 785.827 509.936 786.427 510.76C787.035 511.584 787.931 511.996 789.115 511.996C789.923 511.996 790.575 511.812 791.071 511.444C791.575 511.068 791.959 510.532 792.223 509.836L794.767 510.436C794.343 511.7 793.643 512.672 792.667 513.352C791.691 514.024 790.507 514.36 789.115 514.36ZM806.307 514V507.628C806.307 507.124 806.263 506.608 806.175 506.08C806.095 505.544 805.935 505.048 805.695 504.592C805.463 504.136 805.131 503.768 804.699 503.488C804.275 503.208 803.719 503.068 803.031 503.068C802.583 503.068 802.159 503.144 801.759 503.296C801.359 503.44 801.007 503.676 800.703 504.004C800.407 504.332 800.171 504.764 799.995 505.3C799.827 505.836 799.743 506.488 799.743 507.256L798.183 506.668C798.183 505.492 798.403 504.456 798.843 503.56C799.283 502.656 799.915 501.952 800.739 501.448C801.563 500.944 802.559 500.692 803.727 500.692C804.623 500.692 805.375 500.836 805.983 501.124C806.591 501.412 807.083 501.792 807.459 502.264C807.843 502.728 808.135 503.236 808.335 503.788C808.535 504.34 808.671 504.88 808.743 505.408C808.815 505.936 808.851 506.4 808.851 506.8V514H806.307ZM797.199 514V496.72H799.443V506.044H799.743V514H797.199ZM815.637 514.36C814.677 514.36 813.873 514.184 813.225 513.832C812.577 513.472 812.085 513 811.749 512.416C811.421 511.824 811.257 511.176 811.257 510.472C811.257 509.816 811.373 509.24 811.605 508.744C811.837 508.248 812.181 507.828 812.637 507.484C813.093 507.132 813.653 506.848 814.317 506.632C814.893 506.464 815.545 506.316 816.273 506.188C817.001 506.06 817.765 505.94 818.565 505.828C819.373 505.716 820.173 505.604 820.965 505.492L820.053 505.996C820.069 504.98 819.853 504.228 819.405 503.74C818.965 503.244 818.205 502.996 817.125 502.996C816.445 502.996 815.821 503.156 815.253 503.476C814.685 503.788 814.289 504.308 814.065 505.036L811.725 504.316C812.045 503.204 812.653 502.32 813.549 501.664C814.453 501.008 815.653 500.68 817.149 500.68C818.309 500.68 819.317 500.88 820.173 501.28C821.037 501.672 821.669 502.296 822.069 503.152C822.277 503.576 822.405 504.024 822.453 504.496C822.501 504.968 822.525 505.476 822.525 506.02V514H820.305V511.036L820.737 511.42C820.201 512.412 819.517 513.152 818.685 513.64C817.861 514.12 816.845 514.36 815.637 514.36ZM816.081 512.308C816.793 512.308 817.405 512.184 817.917 511.936C818.429 511.68 818.841 511.356 819.153 510.964C819.465 510.572 819.669 510.164 819.765 509.74C819.901 509.356 819.977 508.924 819.993 508.444C820.017 507.964 820.029 507.58 820.029 507.292L820.845 507.592C820.053 507.712 819.333 507.82 818.685 507.916C818.037 508.012 817.449 508.108 816.921 508.204C816.401 508.292 815.937 508.4 815.529 508.528C815.185 508.648 814.877 508.792 814.605 508.96C814.341 509.128 814.129 509.332 813.969 509.572C813.817 509.812 813.741 510.104 813.741 510.448C813.741 510.784 813.825 511.096 813.993 511.384C814.161 511.664 814.417 511.888 814.761 512.056C815.105 512.224 815.545 512.308 816.081 512.308ZM825.881 498.916V496.48H828.389V498.916H825.881ZM825.881 514V501.04H828.389V514H825.881ZM841.089 514V507.628C841.089 507.124 841.045 506.608 840.957 506.08C840.877 505.544 840.717 505.048 840.477 504.592C840.245 504.136 839.913 503.768 839.481 503.488C839.057 503.208 838.501 503.068 837.812 503.068C837.365 503.068 836.941 503.144 836.541 503.296C836.141 503.44 835.789 503.676 835.485 504.004C835.189 504.332 834.953 504.764 834.777 505.3C834.609 505.836 834.525 506.488 834.525 507.256L832.965 506.668C832.965 505.492 833.185 504.456 833.625 503.56C834.065 502.656 834.697 501.952 835.521 501.448C836.345 500.944 837.341 500.692 838.509 500.692C839.405 500.692 840.157 500.836 840.765 501.124C841.373 501.412 841.865 501.792 842.241 502.264C842.625 502.728 842.917 503.236 843.117 503.788C843.317 504.34 843.453 504.88 843.525 505.408C843.597 505.936 843.633 506.4 843.633 506.8V514H841.089ZM831.981 514V501.04H834.225V504.784H834.525V514H831.981Z" fill="#144046"/>
<defs>
<clipPath id="clip0_692_4019">
<rect width="22.3916" height="28.3627" fill="white" transform="translate(654.132 421.909) rotate(15)"/>
</clipPath>
</defs>
</svg>
